#!OML:ASF C:\Vicon Data\Big\jianyuan-13\jianyuan\Session 1\Capture.male.ASF
:FULLY-SPECIFIED
:DEGREES
98
root -8.197722 17.461458 -19.215059 10.336972 7.124023 0.984998
lowerback -7.242812 0.853932 -1.571767 
upperback -0.119942 1.246893 -0.114207 
thorax 3.906610 0.578795 0.894547 
lowerneck -9.168956 -2.945269 3.909808 
upperneck 5.423684 -4.120701 -4.247296 
head 3.217036 -2.141230 -2.330291 
rclavicle 0.000000 0.000000 
rhumerus -32.560086 -10.977397 -85.387773 
rradius 38.652565 
rwrist 18.590959 
rhand -20.910384 -16.270116 
rfingers 0.000000 
rthumb 5.460866 -46.179781 
lclavicle 0.000000 0.000000 
lhumerus -52.546215 42.434468 54.769727 
lradius 21.109540 
lwrist -74.327587 
lhand -22.648105 -0.951229 
lfingers 0.000000 
lthumb 3.782930 28.994924 
rfemur -11.049590 4.623111 23.792321 
rtibia 18.496107 
rfoot -14.804124 -1.714920 
rtoes -22.169954 
lfemur -30.239407 -7.749188 -18.549379 
ltibia 14.502297 
lfoot -10.192783 7.190194 
ltoes -27.444524 
99
root -8.194726 17.463980 -19.161697 10.334041 7.065675 0.932858
lowerback -7.274453 0.866414 -1.520302 
upperback -0.116721 1.259313 -0.100665 
thorax 3.928181 0.585595 0.881578 
lowerneck -9.253241 -2.899002 3.809355 
upperneck 5.524938 -4.051412 -4.183717 
head 3.274193 -2.106581 -2.292724 
rclavicle 0.000000 0.000000 
rhumerus -32.455517 -10.743131 -85.483154 
rradius 38.790819 
rwrist 18.510529 
rhand -20.935603 -16.405938 
rfingers 0.000000 
rthumb 5.436520 -46.316233 
lclavicle 0.000000 0.000000 
lhumerus -53.325211 42.824551 53.803751 
lradius 21.004521 
lwrist -74.807647 
lhand -22.537862 -0.981261 
lfingers 0.000000 
lthumb 3.889408 28.962950 
rfemur -10.816224 4.643133 23.871580 
rtibia 18.411263 
rfoot -14.814122 -1.736491 
rtoes -22.384225 
lfemur -30.095029 -7.515517 -18.648723 
ltibia 13.886414 
lfoot -10.134059 7.312236 
ltoes -27.800021 
100
root -8.189803 17.467400 -19.110392 10.335671 7.049406 0.873500
lowerback -7.294536 0.878887 -1.408130 
upperback -0.125203 1.267364 -0.124455 
thorax 3.933396 0.591744 0.795123 
lowerneck -9.236999 -2.892842 3.898642 
upperneck 5.535679 -4.049268 -4.243176 
head 3.272645 -2.105881 -2.328729 
rclavicle 0.000000 0.000000 
rhumerus -32.331764 -10.856362 -85.527563 
rradius 38.815968 
rwrist 18.666388 
rhand -20.846953 -16.273238 
rfingers 0.000000 
rthumb 5.522126 -46.181301 
lclavicle 0.000000 0.000000 
lhumerus -54.344580 43.456236 52.386018 
lradius 20.883717 
lwrist -76.022952 
lhand -22.473653 -1.051208 
lfingers 0.000000 
lthumb 3.951430 28.891927 
rfemur -10.611476 4.567435 23.954605 
rtibia 18.341527 
rfoot -14.777785 -1.683245 
rtoes -22.590077 
lfemur -29.981164 -7.544692 -18.610937 
ltibia 13.336263 
lfoot -10.306819 7.491903 
ltoes -26.559843 
101
root -8.184435 17.469634 -19.056654 10.383303 6.973713 1.022618
lowerback -7.372402 0.871452 -1.549928 
upperback -0.120118 1.271864 -0.169107 
thorax 3.980257 0.590820 0.830498 
lowerneck -9.290973 -2.857608 4.093995 
upperneck 5.586633 -4.016035 -4.405002 
head 3.297234 -2.092274 -2.420781 
rclavicle 0.000000 0.000000 
rhumerus -32.211641 -10.768866 -85.560131 
rradius 38.855083 
rwrist 18.814063 
rhand -20.830759 -16.208060 
rfingers 0.000000 
rthumb 5.537778 -46.115700 
lclavicle 0.000000 0.000000 
lhumerus -55.187383 43.927955 51.297320 
lradius 20.751820 
lwrist -76.679281 
lhand -22.461415 -1.066140 
lfingers 0.000000 
lthumb 3.963215 28.876742 
rfemur -10.437445 4.505968 23.804656 
rtibia 18.311870 
rfoot -14.731635 -1.623915 
rtoes -22.858830 
lfemur -29.834172 -7.316616 -18.957267 
ltibia 12.779292 
lfoot -10.206869 7.598557 
ltoes -26.047662 
102
root -8.177306 17.471711 -19.004302 10.407848 6.956480 1.071354
lowerback -7.422983 0.871289 -1.547780 
upperback -0.124385 1.272945 -0.201097 
thorax 4.004985 0.591177 0.797192 
lowerneck -9.308083 -2.845369 4.115443 
upperneck 5.650773 -3.999184 -4.441321 
head 3.322820 -2.084956 -2.438561 
rclavicle 0.000000 0.000000 
rhumerus -32.081183 -10.650792 -85.651801 
rradius 38.921468 
rwrist 18.672594 
rhand -20.899219 -16.279501 
rfingers 0.000000 
rthumb 5.471639 -46.188852 
lclavicle 0.000000 0.000000 
lhumerus -55.973846 44.276378 50.327492 
lradius 20.651351 
lwrist -77.194493 
lhand -22.480937 -1.020413 
lfingers 0.000000 
lthumb 3.944329 28.922850 
rfemur -10.275296 4.408710 23.770756 
rtibia 18.332672 
rfoot -14.713644 -1.569925 
rtoes -23.116114 
lfemur -29.640256 -7.008761 -19.262462 
ltibia 12.201870 
lfoot -9.882193 7.668721 
ltoes -27.173654 
103
root -8.169928 17.472400 -18.951509 10.416569 6.917959 1.093923
lowerback -7.450845 0.860375 -1.538385 
upperback -0.139868 1.257182 -0.198428 
thorax 4.005070 0.583303 0.793330 
lowerneck -9.313894 -2.811007 4.020725 
upperneck 5.726721 -3.942486 -4.410445 
head 3.354983 -2.057609 -2.410287 
rclavicle 0.000000 0.000000 
rhumerus -32.006309 -10.454968 -85.660487 
rradius 39.004849 
rwrist 18.570285 
rhand -20.850542 -16.220611 
rfingers 0.000000 
rthumb 5.518625 -46.128720 
lclavicle 0.000000 0.000000 
lhumerus -56.739372 44.526002 49.503900 
lradius 20.603099 
lwrist -77.561992 
lhand -22.468320 -0.935887 
lfingers 0.000000 
lthumb 3.956498 29.007136 
rfemur -10.117375 4.277108 23.764670 
rtibia 18.397056 
rfoot -14.747848 -1.476864 
rtoes -23.355832 
lfemur -29.417016 -6.826205 -19.478671 
ltibia 11.622326 
lfoot -9.668717 7.734711 
ltoes -27.850147 
104
root -8.161863 17.472804 -18.898198 10.423932 6.879356 1.177796
lowerback -7.470878 0.853380 -1.578196 
upperback -0.155207 1.251486 -0.220076 
thorax 4.000157 0.579643 0.792853 
lowerneck -9.307569 -2.796949 3.968801 
upperneck 5.792901 -3.915866 -4.412269 
head 3.378835 -2.045608 -2.401786 
rclavicle 0.000000 0.000000 
rhumerus -31.944037 -10.389415 -85.676686 
rradius 39.053699 
rwrist 18.551899 
rhand -20.786428 -16.149059 
rfingers 0.000000 
rthumb 5.580548 -46.055556 
lclavicle 0.000000 0.000000 
lhumerus -57.475038 44.761531 48.683440 
lradius 20.525304 
lwrist -78.030332 
lhand -22.461825 -0.828799 
lfingers 0.000000 
lthumb 3.962803 29.114087 
rfemur -9.959675 4.093457 23.690531 
rtibia 18.480324 
rfoot -14.805070 -1.369895 
rtoes -23.609226 
lfemur -29.178056 -6.775650 -19.693457 
ltibia 11.085174 
lfoot -9.592084 7.777432 
ltoes -27.504459 
105
root -8.153767 17.474293 -18.844753 10.439298 6.861555 1.263338
lowerback -7.508714 0.853618 -1.599490 
upperback -0.164070 1.255228 -0.267021 
thorax 4.012709 0.581007 0.757203 
lowerneck -9.293276 -2.800843 3.996660 
upperneck 5.842822 -3.919654 -4.465337 
head 3.392122 -2.049069 -2.426104 
rclavicle 0.000000 0.000000 
rhumerus -31.889264 -10.329377 -85.742474 
rradius 39.110951 
rwrist 18.487734 
rhand -20.810260 -16.143319 
rfingers 0.000000 
rthumb 5.557537 -46.050409 
lclavicle 0.000000 0.000000 
lhumerus -58.181943 45.038880 47.789923 
lradius 20.406186 
lwrist -78.595881 
lhand -22.448053 -0.741575 
lfingers 0.000000 
lthumb 3.976114 29.201071 
rfemur -9.806641 3.941956 23.610730 
rtibia 18.556960 
rfoot -14.854907 -1.309821 
rtoes -23.668471 
lfemur -28.951407 -6.722629 -19.908663 
ltibia 10.609273 
lfoot -9.462020 7.790282 
ltoes -27.601500 
106
root -8.145487 17.475870 -18.791754 10.479349 6.881598 1.303116
lowerback -7.577287 0.845028 -1.568006 
upperback -0.176919 1.242832 -0.310622 
thorax 4.039780 0.575121 0.694138 
lowerneck -9.299407 -2.785467 4.085116 
upperneck 5.903851 -3.904963 -4.521967 
head 3.413309 -2.041984 -2.462791 
rclavicle 0.000000 0.000000 
rhumerus -31.844173 -10.241197 -85.785901 
rradius 39.176429 
rwrist 18.517990 
rhand -20.811135 -16.085215 
rfingers 0.000000 
rthumb 5.556673 -45.992315 
lclavicle 0.000000 0.000000 
lhumerus -58.802402 45.281167 46.980002 
lradius 20.314424 
lwrist -78.971345 
lhand -22.372190 -0.687835 
lfingers 0.000000 
lthumb 4.049343 29.253434 
rfemur -9.675314 3.812681 23.575117 
rtibia 18.613389 
rfoot -14.872879 -1.269123 
rtoes -23.531872 
lfemur -28.782554 -6.706290 -20.061340 
ltibia 10.212856 
lfoot -9.278826 7.781380 
ltoes -28.306603 
107
root -8.139001 17.475168 -18.736502 10.507240 6.921417 1.318358
lowerback -7.655093 0.830954 -1.549957 
upperback -0.191198 1.223620 -0.333302 
thorax 4.069926 0.565406 0.659663 
lowerneck -9.317756 -2.761280 4.192888 
upperneck 5.990865 -3.882345 -4.549625 
head 3.446487 -2.028996 -2.493916 
rclavicle 0.000000 0.000000 
rhumerus -31.786628 -10.342447 -85.790845 
rradius 39.186039 
rwrist 18.762537 
rhand -20.716675 -15.978239 
rfingers 0.000000 
rthumb 5.647896 -45.882991 
lclavicle 0.000000 0.000000 
lhumerus -59.381870 45.447484 46.278477 
lradius 20.274268 
lwrist -79.247191 
lhand -22.297743 -0.647236 
lfingers 0.000000 
lthumb 4.121255 29.292653 
rfemur -9.521691 3.725313 23.581182 
rtibia 18.647223 
rfoot -14.865337 -1.281245 
rtoes -23.569540 
lfemur -28.641999 -6.831257 -20.109539 
ltibia 9.923137 
lfoot -9.203293 7.788341 
ltoes -28.317428 
